HIERARCHY
ROOT Hips
{
  OFFSET 5.49576 92.7869 35.8366
  CHANNELS 6 Xposition Yposition Zposition Zrotation Xrotation Yrotation
  JOINT RightUpLeg
  {
    OFFSET -8.9458 -8.66707 0.101652
    CHANNELS 3 Zrotation Xrotation Yrotation
    JOINT RightLeg
    {
      OFFSET 0 -44.4227 1.3727
      CHANNELS 3 Zrotation Xrotation Yrotation
      JOINT RightFoot
      {
        OFFSET 0.253549 -42.0924 -1.46059
        CHANNELS 3 Zrotation Xrotation Yrotation
        JOINT RightToes
        {
          OFFSET 0.04 -4.41509 8.4991
          CHANNELS 3 Zrotation Xrotation Yrotation
          End Site
          {
            OFFSET -0.08 -0.137448 9.77979
          }
        }
      }
    }
  }
  JOINT Spine
  {
    OFFSET 0 11.8905 0
    CHANNELS 3 Zrotation Xrotation Yrotation
    JOINT Spine1
    {
      OFFSET 0 25.6574 0.127663
      CHANNELS 3 Zrotation Xrotation Yrotation
      JOINT HEad
      {
        OFFSET 0 8.73416 0.011341
        CHANNELS 3 Zrotation Xrotation Yrotation
        End Site
        {
          OFFSET -0.29 12.7742 2.51395
        }
      }
      JOINT LeftShoulder1
      {
        OFFSET 8.99 -0.362252 -0.22
        CHANNELS 3 Zrotation Xrotation Yrotation
        JOINT LeftArm
        {
          OFFSET 10.2827 -0.00338 0.322123
          CHANNELS 3 Zrotation Xrotation Yrotation
          JOINT LeftForeArm
          {
            OFFSET 32.7669 0.099144 -1.42434
            CHANNELS 3 Zrotation Xrotation Yrotation
            JOINT LeftHand
            {
              OFFSET 27.5643 0.085362 1.02216
              CHANNELS 3 Zrotation Xrotation Yrotation
              End Site
              {
                OFFSET 16.7443 -0.6 1.50291
              }
            }
          }
        }
      }
      JOINT RightShoulder
      {
        OFFSET -8.99 -0.362252 -0.22
        CHANNELS 3 Zrotation Xrotation Yrotation
        JOINT RightArm
        {
          OFFSET -10.2827 -0.00338 0.322123
          CHANNELS 3 Zrotation Xrotation Yrotation
          JOINT RightForeArm
          {
            OFFSET -32.8971 0.099144 -1.42434
            CHANNELS 3 Zrotation Xrotation Yrotation
            JOINT RightHand
            {
              OFFSET -27.4921 0.085362 1.02216
              CHANNELS 3 Zrotation Xrotation Yrotation
              End Site
              {
                OFFSET -16.6312 -0.6 1.50291
              }
            }
          }
        }
      }
    }
  }
  JOINT LeftUpLeg
  {
    OFFSET 8.9458 -8.66707 0.101652
    CHANNELS 3 Zrotation Xrotation Yrotation
    JOINT LeftLeg
    {
      OFFSET 0 -44.4227 1.3727
      CHANNELS 3 Zrotation Xrotation Yrotation
      JOINT LeftFoot
      {
        OFFSET -0.253549 -42.0924 -1.46059
        CHANNELS 3 Zrotation Xrotation Yrotation
        JOINT LeftToes
        {
          OFFSET -0.04 -4.41509 8.4991
          CHANNELS 3 Zrotation Xrotation Yrotation
          End Site
          {
            OFFSET 0.08 -0.047448 9.77979
          }
        }
      }
    }
  }
}
MOTION
Frames:	18
Frame Time:	0.0166667
74.0834 90.6561 -53.8021 0.926234 -6.51894 39.9488 -20.8007 -27.5807 9.8934 8.00543 35.5107 -2.47028 11.963 18.1498 -2.69393 -9.21523 -39.9402 3.32502 3.92217 9.35178 -1.7201 -0.725725 18.4778 -3.04954 14.4889 -11.0386 -6.35349 1.59028e-015 -1.59028e-015 -6.36111e-015 -72.6513 6.7371 -39.0737 -14.4937 39.2576 -113.601 6.54677 9.62745 -1.04006 27.3635 -5.78716 -22.0326 50.3887 -0.840414 17.9995 -4.72865 33.2748 107.689 -29.1022 4.37039 17.4515 31.9931 -16.1404 -2.06805 -13.8517 38.5244 6.26644 -19.5047 38.2946 7.70187 54.743 -65.2485 30.6549 
73.5901 89.9869 -53.6756 1.67172 -6.82761 40.3324 -21.969 -25.9656 12.4184 8.00026 35.814 -5.5014 9.71021 18.1456 -2.18461 -9.66628 -40.9454 2.98416 4.00376 9.28676 -1.67296 -0.715104 18.3476 -2.88256 13.8981 -10.298 -6.64628 -1.59028e-015 1.59028e-015 3.18055e-015 -72.0588 7.2842 -40.7755 -14.3306 39.3934 -113.96 6.54677 9.62745 -1.04006 27.5795 -6.0162 -22.6552 48.2416 -3.71498 17.5353 -5.72062 33.418 110.213 -28.6178 4.89195 15.8036 31.8416 -15.7727 -2.2752 -13.5426 38.742 5.96075 -19.7962 38.7989 7.91266 58.0268 -66.4341 33.285 
73.0764 89.1603 -53.5215 2.57232 -7.07008 40.5368 -23.2797 -24.3885 15.1448 8.1907 36.2964 -8.38939 8.00294 17.9415 -1.78704 -10.0205 -41.4517 2.60535 4.01816 9.20133 -1.62713 -0.73913 18.1727 -2.6935 13.2203 -9.67504 -6.65841 3.18055e-015 -4.77083e-015 3.18055e-015 -71.5135 7.35588 -42.2618 -14.2032 39.6195 -114.389 6.54677 9.62745 -1.04006 27.6759 -6.17085 -23.1032 46.3053 -6.92726 17.796 -6.63308 33.5518 112.651 -28.1763 5.39558 14.1253 31.5608 -15.0301 -2.795 -13.4569 38.6764 5.97016 -19.4972 38.9095 7.8069 62.0799 -67.3817 36.8985 
72.4865 88.2336 -53.3237 3.5387 -7.2145 40.5299 -24.5884 -22.9694 17.7492 8.34274 36.9338 -10.3059 7.17342 17.4573 -1.57476 -10.3975 -41.8887 2.16522 3.96896 9.0834 -1.59902 -0.76606 17.9319 -2.53566 12.4968 -9.15742 -6.3447 6.36111e-015 1.59028e-015 -0 -71.0479 6.84917 -43.2521 -14.1158 39.9438 -114.928 6.54677 9.62745 -1.04006 27.6234 -6.231 -23.3377 44.9731 -10.2611 18.9564 -7.4176 33.6579 114.782 -27.8088 5.85737 12.5026 31.2652 -14.0475 -3.54767 -13.6292 38.3515 6.23556 -18.7605 38.6142 7.44802 65.9918 -67.8496 40.6974 
71.7585 87.2897 -53.0617 4.48273 -7.23352 40.2969 -25.7484 -21.8091 19.8734 8.21057 37.6746 -10.7856 7.25184 16.6913 -1.54852 -11.013 -42.7679 1.52943 3.86799 8.93283 -1.59185 -0.768541 17.6257 -2.43616 11.7493 -8.73542 -5.71292 -3.18055e-015 0 -0 -70.6394 5.72186 -43.5421 -14.0716 40.3438 -115.577 6.54677 9.62745 -1.04006 27.3936 -6.17722 -23.3161 44.6872 -13.4639 21.1559 -8.10159 33.7004 116.532 -27.4785 6.29123 10.9181 31.024 -12.9455 -4.42039 -13.9635 37.7519 6.60496 -17.7939 37.9418 6.93883 68.6887 -67.7248 43.6837 
70.8334 86.429 -52.7147 5.31895 -7.10822 39.8466 -26.631 -20.9936 21.2154 7.64356 38.4389 -9.81652 7.95255 15.7161 -1.63612 -12.0727 -44.3698 0.509477 3.74237 8.75891 -1.59371 -0.717074 17.2735 -2.38808 10.9815 -8.41316 -4.82795 -3.53113e-031 1.59028e-015 1.27222e-014 -70.2186 4.00756 -43.0268 -14.0707 40.7664 -116.291 6.54677 9.62745 -1.04006 26.9638 -5.99638 -23.0029 45.8196 -16.2354 24.4366 -8.76681 33.6174 117.998 -27.0793 6.7361 9.27417 30.8638 -11.818 -5.31516 -14.2734 36.8195 6.9069 -16.7828 36.959 6.37873 69.2986 -66.9933 45.0277 
69.6626 85.7541 -52.2652 5.96899 -6.82814 39.2194 -27.142 -20.5908 21.5945 6.64028 39.1225 -7.76526 8.82278 14.7123 -1.74312 -13.7048 -46.6828 -1.0413 3.63174 8.5747 -1.5816 -0.576427 16.9039 -2.35647 10.1873 -8.21501 -3.80226 1.59028e-015 -4.77083e-015 6.36111e-015 -69.6979 1.82109 -41.6904 -14.112 41.1406 -116.987 6.54677 9.62745 -1.04006 26.3234 -5.68601 -22.376 48.5079 -18.2331 28.6792 -9.50979 33.3239 119.401 -26.4717 7.22862 7.46037 30.7808 -10.7398 -6.18776 -14.3494 35.4776 7.02302 -15.8379 35.7404 5.83154 67.3541 -65.6299 44.2932 
68.2134 85.3488 -51.7011 6.37182 -6.38845 38.4924 -27.2381 -20.6354 20.9672 5.32856 39.6177 -5.18954 9.46081 13.9608 -1.81087 -15.9224 -49.5242 -3.13032 3.57593 8.39299 -1.52978 -0.311194 16.5466 -2.29476 9.3655 -8.18467 -2.77444 0 0 -0 -69.007 -0.652778 -39.5803 -14.1995 41.4003 -117.555 6.54677 9.62745 -1.04006 25.4759 -5.25436 -21.4251 52.5163 -19.1374 33.5677 -10.3964 32.73 120.986 -25.5352 7.77719 5.42511 30.7553 -9.78148 -7.05573 -14.0229 33.6688 6.9277 -14.993 34.3241 5.31884 62.791 -63.5046 41.45 
66.4736 85.2584 -51.0197 6.49658 -5.78922 37.7762 -26.9398 -21.1099 19.4143 3.90368 39.841 -2.63484 9.6671 13.7555 -1.83394 -18.5965 -52.6822 -5.56894 3.60186 8.22504 -1.41933 0.101353 16.2267 -2.1633 8.53475 -8.37311 -1.8813 -1.59028e-015 -1.59028e-015 3.18055e-015 -68.1215 -3.18752 -36.7871 -14.3452 41.5044 -117.874 6.54677 9.62745 -1.04006 24.4365 -4.71703 -20.1444 57.2304 -18.7725 38.6457 -11.4281 31.7704 122.897 -24.2033 8.35346 3.20861 30.764 -9.01624 -7.97046 -13.2133 31.3948 6.68999 -14.2282 32.6705 4.82932 55.8922 -60.3404 36.8154 
64.4553 85.4787 -50.2299 6.35374 -5.04036 37.1994 -26.3337 -21.9364 17.1203 2.56881 39.7533 -0.507083 9.45468 14.2959 -1.83506 -21.4606 -56.0072 -7.99579 3.71912 8.08071 -1.24527 0.657942 15.9642 -1.94219 7.73951 -8.81633 -1.231 0 0 -0 -67.0778 -5.55783 -33.4367 -14.5635 41.4475 -117.844 6.54677 9.62745 -1.04006 23.2245 -4.09311 -18.5267 61.842 -17.2053 43.4745 -12.5377 30.4337 125.099 -22.4642 8.90794 0.914759 30.7917 -8.51028 -8.97004 -11.9576 28.7404 6.45954 -13.4966 30.6578 4.33439 47.2566 -55.7342 31.0108 
62.1972 85.9621 -49.353 5.99843 -4.16992 36.8831 -25.5539 -22.987 14.3458 1.49577 39.37 0.954597 8.95393 15.6282 -1.8341 -24.1786 -59.428 -9.99482 3.92417 7.96825 -1.01819 1.32422 15.774 -1.63535 7.04293 -9.5129 -0.882707 1.59028e-015 3.18055e-015 9.54166e-015 -65.9722 -7.58853 -29.6884 -14.8592 41.2568 -117.415 6.54677 9.62745 -1.04006 21.8575 -3.40412 -16.5668 65.6236 -14.7375 47.7923 -13.6218 28.7769 127.393 -20.3325 9.39539 -1.35712 30.8378 -8.30197 -10.0383 -10.4305 25.87 6.45387 -12.7438 28.1362 3.80645 37.721 -49.2596 24.8718 
59.7593 86.6374 -48.4179 5.52364 -3.22901 36.9096 -24.7446 -24.1073 11.3821 0.796641 38.7558 1.65526 8.29489 17.6356 -1.8321 -26.4257 -62.8803 -11.2327 4.20417 7.89414 -0.759093 2.04013 15.6687 -1.26559 6.50922 -10.4117 -0.840457 -1.59028e-015 4.77083e-015 -0 -64.9446 -9.19513 -25.7254 -15.2183 40.9823 -116.622 6.54677 9.62745 -1.04006 20.3501 -2.6767 -14.2769 68.1148 -11.7974 51.5414 -14.5911 26.9161 129.502 -17.8262 9.78898 -3.56943 30.9147 -8.38401 -11.0875 -8.94152 22.9954 6.93407 -11.9278 25.0505 3.24031 28.2027 -40.7208 19.2667 
57.21 87.4355 -47.4531 5.04293 -2.28686 37.3003 -24.0141 -25.142 8.49609 0.501178 38.0033 1.62219 7.52888 20.058 -1.80663 -27.9195 -66.2093 -11.5163 4.53285 7.86463 -0.49016 2.73264 15.661 -0.86242 6.18482 -11.4186 -1.06508 3.18055e-015 -3.18055e-015 3.18055e-015 -64.1454 -10.3976 -21.7305 -15.6122 40.6858 -115.582 6.54677 9.62745 -1.04006 18.7232 -1.947 -11.7112 69.1656 -8.81468 54.7682 -15.4092 24.9991 131.176 -14.9798 10.0759 -5.74749 31.0287 -8.70694 -11.9643 -7.88329 20.3476 8.12434 -11.0316 21.5633 2.66454 19.5248 -30.5619 14.8641 
54.6113 88.3065 -46.4779 4.66661 -1.41659 38.0137 -23.401 -25.9572 5.88819 0.555102 37.1984 0.984874 6.61444 22.5454 -1.71371 -28.437 -69.1435 -10.792 4.86435 7.88756 -0.226788 3.33202 15.7627 -0.447525 6.08539 -12.4181 -1.50074 1.59028e-015 -3.18055e-015 -0 -63.6975 -11.2974 -17.855 -16.0098 40.4292 -114.469 6.54677 9.62745 -1.04006 17.0161 -1.26037 -8.98633 68.8974 -6.1335 57.503 -16.1026 23.1751 132.256 -11.8853 10.2472 -7.92691 31.1486 -9.20796 -12.4743 -7.62729 18.1819 10.0891 -10.041 18.0646 2.12446 12.3143 -20.1393 11.9493 
52.0119 89.222 -45.4994 4.47509 -0.677447 38.9669 -22.8717 -26.4566 3.67734 0.847628 36.3908 -0.0600388 5.46512 24.7406 -1.50242 -27.9156 -71.3677 -9.19288 5.139 7.97048 0.0263731 3.78774 15.9792 -0.023388 6.19205 -13.303 -2.10614 1.59028e-015 0 -0 -63.6668 -12.027 -14.2002 -16.3874 40.2641 -113.463 6.54677 9.62745 -1.04006 15.2956 -0.66323 -6.27968 67.629 -3.966 59.7028 -16.7425 21.5704 132.704 -8.72115 10.2974 -10.0906 31.188 -9.84565 -12.4279 -8.40539 16.8096 12.6877 -8.90925 15.0163 1.65184 6.97371 -11.3196 10.3581 
49.4542 90.1631 -44.5168 4.49799 -0.104347 40.0689 -22.3526 -26.5942 1.90657 1.25974 35.5935 -1.29763 4.03013 26.35 -1.14391 -26.5873 -72.6193 -7.11823 5.3105 8.11379 0.275719 4.08115 16.2987 0.428619 6.45725 -13.9991 -2.87557 -3.53113e-031 -3.18055e-015 -6.36111e-015 -64.0522 -12.6982 -10.8201 -16.727 40.2256 -112.717 6.54677 9.62745 -1.04006 13.6544 -0.190109 -3.80144 65.7734 -2.37784 61.2665 -17.4062 20.272 132.595 -5.72943 10.2372 -12.1452 31.028 -10.61 -11.7025 -10.2372 16.5883 15.7075 -7.57312 12.7522 1.25227 3.6882 -5.54622 9.59711 
46.984 91.1055 -43.5298 4.70394 0.29093 41.2514 -21.7728 -26.383 0.557994 1.70929 34.8135 -2.54194 2.35791 27.171 -0.659812 -24.9229 -72.7366 -5.14345 5.37967 8.30266 0.535512 4.23004 16.6842 0.939167 6.81787 -14.4804 -3.84052 3.18055e-015 6.36111e-015 -0 -64.7904 -13.3694 -7.74661 -17.0078 40.3312 -112.35 6.54677 9.62745 -1.04006 12.202 0.1456 -1.75224 63.7182 -1.31062 62.0872 -18.1347 19.3245 132.086 -3.15318 10.1015 -13.9542 30.5781 -11.4884 -10.3082 -12.9429 17.7943 19.0712 -6.00851 11.3855 0.911083 2.42248 -3.31202 9.13636 
44.648 92.0127 -42.543 5.00944 0.511817 42.4863 -21.0908 -25.8974 -0.430163 2.17156 34.0928 -3.66993 0.601424 27.0838 -0.126476 -23.3011 -71.6443 -3.68318 5.40815 8.50679 0.820775 4.28143 17.0762 1.53514 7.21252 -14.7699 -5.05181 -3.18055e-015 6.36111e-015 6.36111e-015 -65.7717 -14.0373 -5.02353 -17.1998 40.5811 -112.431 6.54677 9.62745 -1.04006 11.0516 0.351494 -0.287277 61.7386 -0.638874 62.0989 -18.9027 18.7381 131.374 -1.17929 9.94327 -15.3909 29.8206 -12.4299 -8.42941 -16.2432 20.4583 22.8965 -4.25619 10.8108 0.602919 2.8837 -4.26475 8.69883 
